<svg width="77" height="82" viewBox="0 0 77 82" fill="none" xmlns="http://www.w3.org/2000/svg">
<g clip-path="url(#clip0_102_1620)">
<path d="M0.520264 24.3105V0.519043H19.7703V15.2907V30.0623L17.4492 33.4554C17.0969 33.9705 16.5993 34.3698 16.0194 34.6029C14.9617 35.0282 13.7562 34.8522 12.865 34.1424L0.520264 24.3105Z" fill="black" stroke="black"/>
<path d="M76.4797 24.3105V0.519043H57.2297V15.2907V30.0623L59.5507 33.4554C59.9034 33.9705 60.4008 34.3698 60.9804 34.6029C62.0386 35.0282 63.2435 34.8522 64.1353 34.1424L76.4797 24.3105Z" fill="black" stroke="black"/>
<path d="M76.4797 53.5377V77.3291H57.2297V62.5577V47.7859L59.5507 44.3928C59.9034 43.8777 60.4008 43.4783 60.9804 43.2453C62.0386 42.82 63.2435 42.996 64.1353 43.7058L76.4797 53.5377Z" fill="black" stroke="black"/>
<path d="M0.520264 53.5377V77.3291H19.7703V62.5577V47.7859L17.4492 44.3928C17.0969 43.8777 16.5993 43.4783 16.0194 43.2453C14.9617 42.82 13.7562 42.996 12.865 43.7058L0.520264 53.5377Z" fill="black" stroke="black"/>
<path d="M30.1756 33.4748V0.778564H47.3445V33.4748C47.8516 35.4982 48.9906 37.3083 50.5968 38.6435L51.2465 39.1836L50.3074 40.1985C48.8754 41.746 47.8566 43.6279 47.3445 45.671V77.0697C44.4443 77.5804 41.7226 78.8202 39.437 80.673L38.76 81.2216L38.4453 80.9497C36.0994 78.9215 33.2377 77.5788 30.1756 77.0697V45.671C29.4897 43.6185 28.3743 41.7349 26.9032 40.1452L26.0134 39.1836L26.6072 38.69C28.2596 37.3164 29.4954 35.5103 30.1756 33.4748Z" fill="black" stroke="black"/>
<path d="M10.4054 39.7025L6.2432 35.8101C5.90747 37.3171 5.04237 38.6547 3.80426 39.581L3.64185 39.7025C4.97003 40.5306 5.89706 41.8684 6.20423 43.4005L6.2432 43.5949L10.4054 39.7025Z" fill="black" stroke="black"/>
<path d="M67.1147 39.7025L71.2769 35.8101C71.6125 37.3171 72.4777 38.6547 73.7159 39.581L73.8783 39.7025C72.55 40.5306 71.6229 41.8684 71.3159 43.4005L71.2769 43.5949L67.1147 39.7025Z" fill="black" stroke="black"/>
</g>
<defs>
<clipPath id="clip0_102_1620">
<rect width="77" height="82" fill="white"/>
</clipPath>
</defs>
</svg>
