<svg width="381" height="64" viewBox="0 0 381 64" fill="none" xmlns="http://www.w3.org/2000/svg">
<path d="M0 0H5.13809V28.9524H0V0Z" fill="#281D16"/>
<path d="M37.4348 28.9524H29.8526L17.6165 7.05001H17.4447C17.6885 10.9188 17.8086 13.677 17.8086 15.3286V28.9524H12.4784V0H20.0017L32.2211 21.6852H32.3542C32.1618 17.9211 32.0659 15.262 32.0659 13.7039V0H37.4348V28.9524Z" fill="#281D16"/>
<path d="M60.1892 20.7462C60.1892 23.2882 59.2373 25.2912 57.3357 26.7568C55.4321 28.2185 52.7863 28.9524 49.3963 28.9524C46.2736 28.9524 43.5087 28.3852 41.1049 27.257V21.7096C43.0816 22.5565 44.7545 23.153 46.1237 23.4993C47.4906 23.8479 48.7424 24.022 49.8771 24.022C51.2383 24.022 52.2826 23.7719 53.0113 23.2679C53.738 22.7693 54.1016 22.0228 54.1016 21.0353C54.1016 20.4813 53.9419 19.992 53.6208 19.5604C53.3016 19.1323 52.8304 18.7154 52.2093 18.317C51.5884 17.9207 50.323 17.2869 48.4157 16.4104C46.6254 15.6044 45.2833 14.8264 44.3891 14.0796C43.495 13.3367 42.7797 12.4696 42.2471 11.482C41.7144 10.4925 41.4473 9.33633 41.4473 8.01338C41.4473 5.52134 42.3239 3.56488 44.0797 2.13827C45.8352 0.711386 48.2619 0 51.3575 0C52.8805 0 54.3323 0.172227 55.7129 0.520516C57.0955 0.867159 58.5413 1.35613 60.0489 1.98442L58.0472 6.62763C56.4839 6.01058 55.1918 5.57892 54.1707 5.33786C53.1517 5.09351 52.1458 4.9712 51.1596 4.9712C49.9829 4.9712 49.0828 5.2342 48.456 5.76048C47.8271 6.28675 47.5138 6.97208 47.5138 7.82086C47.5138 8.34878 47.6408 8.80841 47.8927 9.19921C48.1463 9.59028 48.5502 9.97011 49.1039 10.3351C49.6577 10.7001 50.9712 11.3597 53.04 12.3083C55.7763 13.5682 57.6529 14.83 58.6662 16.0937C59.6817 17.359 60.1892 18.9099 60.1892 20.7462Z" fill="#281D16"/>
<path d="M76.4914 28.9524H70.3089V5.10889H62.391V0H84.4114V5.10889H76.4914V28.9524Z" fill="#281D16"/>
<path d="M87.3475 0H94.6876V28.9524H87.3475V0Z" fill="#281D16"/>
<path d="M111.46 28.9524H105.072V5.10889H96.8899V0H119.644V5.10889H111.46V28.9524Z" fill="#281D16"/>
<path d="M146.802 0V18.4815C146.802 20.5902 146.298 22.4392 145.295 24.0288C144.289 25.6187 142.838 26.8363 140.939 27.6822C139.038 28.5296 136.791 28.9524 134.199 28.9524C130.291 28.9524 127.254 28.0109 125.091 26.1279C122.928 24.2471 121.846 21.6726 121.846 18.4026V0H128.274V17.4858C128.274 19.6882 128.743 21.3022 129.688 22.3301C130.629 23.3599 132.19 23.8731 134.365 23.8731C136.472 23.8731 138.001 23.3563 138.95 22.3208C139.9 21.2836 140.376 19.6618 140.376 17.4444V0H146.802Z" fill="#281D16"/>
<path d="M163.838 28.9524H157.657V5.10889H149.738V0H171.759V5.10889H163.838V28.9524Z" fill="#281D16"/>
<path d="M179.958 14.466C179.958 17.6083 180.531 19.9753 181.673 21.5648C182.819 23.1546 184.529 23.9502 186.806 23.9502C191.372 23.9502 193.654 20.7895 193.654 14.466C193.654 8.12966 191.382 4.9616 186.844 4.9616C184.566 4.9616 182.851 5.76102 181.692 7.35794C180.536 8.95321 179.958 11.3238 179.958 14.466ZM199.651 14.466C199.651 19.1221 198.543 22.6994 196.328 25.2013C194.115 27.7013 190.938 28.9524 186.806 28.9524C182.672 28.9524 179.498 27.7013 177.282 25.2013C175.069 22.6994 173.961 19.1092 173.961 14.429C173.961 9.74522 175.069 6.17184 177.293 3.70118C179.511 1.23245 182.696 0 186.844 0C190.989 0 194.16 1.24369 196.357 3.72888C198.552 6.21983 199.651 9.79706 199.651 14.466Z" fill="#281D16"/>
<path d="M221.412 28.9524H215.8V0H231.214V5.02883H221.412V12.4961H230.534V17.5058H221.412V28.9524Z" fill="#281D16"/>
<path d="M253.968 28.9524H239.288V0H253.968V5.02883H244.694V11.3874H253.323V16.4181H244.694V23.8835H253.968V28.9524Z" fill="#281D16"/>
<path d="M275.278 14.3572C275.278 8.13957 272.763 5.03075 267.727 5.03075H264.733V23.8835H267.149C272.569 23.8835 275.278 20.7081 275.278 14.3572ZM281.127 14.199C281.127 18.9652 279.883 22.6169 277.396 25.1502C274.909 27.6838 271.318 28.9524 266.621 28.9524H259.106V0H267.44C271.772 0 275.136 1.24775 277.531 3.74297C279.926 6.23847 281.127 9.72263 281.127 14.199Z" fill="#281D16"/>
<path d="M303.881 28.9524H288.467V0H303.881V5.02883H294.143V11.3874H303.201V16.4181H294.143V23.8835H303.881V28.9524Z" fill="#281D16"/>
<path d="M314.863 12.8523H316.749C318.595 12.8523 319.958 12.5304 320.84 11.8825C321.719 11.2349 322.16 10.2197 322.16 8.83295C322.16 7.45963 321.709 6.48221 320.812 5.90125C319.912 5.32028 318.523 5.03075 316.635 5.03075H314.863V12.8523ZM314.863 17.843V28.9524H309.019V0H317.05C320.794 0 323.567 0.71805 325.364 2.15059C327.161 3.58313 328.06 5.75648 328.06 8.67475C328.06 10.376 327.614 11.8921 326.722 13.218C325.83 14.5475 324.566 15.5858 322.932 16.3381C327.079 22.8472 329.781 27.0513 331.04 28.9524H324.553L317.975 17.843H314.863Z" fill="#281D16"/>
<path d="M348.317 16.9624C346.432 10.7417 345.372 7.22439 345.136 6.41038C344.896 5.59472 344.729 4.9496 344.626 4.4772C344.202 6.16198 342.993 10.3222 340.992 16.9624H348.317ZM351.776 28.9524L349.739 22.0904H339.496L337.459 28.9524H331.039L340.954 0H348.24L358.198 28.9524H351.776Z" fill="#281D16"/>
<path d="M362.602 28.9524V0H368.904V23.8835H380.952V28.9524H362.602Z" fill="#281D16"/>
<path d="M2.54282 52.9973H6.02949C7.82595 52.9973 9.14285 52.6518 9.9802 51.9551C10.8194 51.2584 11.2372 50.2162 11.2372 48.8231C11.2372 47.4131 10.8117 46.3951 9.95905 45.7745C9.10431 45.1504 7.7371 44.8384 5.84966 44.8384H2.54282V52.9973ZM2.54282 55.1298V64.0001H0V42.6667H6.00059C8.68256 42.6667 10.6666 43.1665 11.9487 44.1679C13.2308 45.1709 13.8728 46.6792 13.8728 48.6931C13.8728 51.5148 12.4053 53.4206 9.47174 54.4145L15.4143 64.0001H12.4053L7.10661 55.1298H2.54282Z" fill="#281D16"/>
<path d="M19.6984 64.0001H18.4558V48.4437H19.6984V64.0001ZM18.3504 44.2281C18.3504 43.6895 18.42 43.2937 18.5595 43.0445C18.6997 42.7931 18.8749 42.6667 19.0849 42.6667C19.2832 42.6667 19.4565 42.7951 19.6007 43.0498C19.7467 43.3045 19.8185 43.6984 19.8185 44.2281C19.8185 44.7592 19.7467 45.1551 19.6007 45.4134C19.4565 45.6737 19.2832 45.8037 19.0849 45.8037C18.8749 45.8037 18.6997 45.6737 18.5595 45.4134C18.42 45.1551 18.3504 44.7592 18.3504 44.2281Z" fill="#281D16"/>
<path d="M25.2618 54.0763C25.2618 56.5183 25.6706 58.3766 26.4862 59.6575C27.3038 60.9363 28.5037 61.5756 30.088 61.5756C31.6704 61.5756 32.8741 60.9386 33.6974 59.6666C34.5167 58.3923 34.9273 56.5295 34.9273 54.0763C34.9273 51.6476 34.5167 49.8005 33.6974 48.5397C32.8741 47.2762 31.6628 46.6481 30.0597 46.6481C28.4736 46.6481 27.2793 47.2697 26.4729 48.5129C25.6668 49.7583 25.2618 51.6143 25.2618 54.0763ZM37.4347 54.0763C37.4347 57.191 36.7792 59.6265 35.4682 61.3737C34.1551 63.1253 32.343 64 30.0296 64C28.6018 64 27.3339 63.5982 26.2245 62.7966C25.1168 61.9931 24.2615 60.8431 23.6605 59.3424C23.056 57.8437 22.7545 56.0876 22.7545 54.0763C22.7545 50.9616 23.4062 48.535 24.708 46.7969C26.0116 45.0586 27.8199 44.1904 30.1313 44.1904C32.3675 44.1904 34.1439 45.0786 35.4605 46.8568C36.7754 48.6349 37.4347 51.0415 37.4347 54.0763Z" fill="#281D16"/>
<path d="M58.6941 52.842H66.7953V62.9359C65.5337 63.2845 64.2535 63.5501 62.9498 63.729C61.6444 63.9098 60.1343 64.0001 58.418 64.0001C54.8108 64.0001 52.0016 63.0659 49.9927 61.1956C47.9815 59.329 46.9769 56.709 46.9769 53.339C46.9769 51.1831 47.4739 49.2912 48.47 47.6684C49.4619 46.0459 50.8938 44.8062 52.7639 43.9498C54.6296 43.0931 56.8199 42.6667 59.3299 42.6667C61.8738 42.6667 64.2408 43.0734 66.4371 43.8865L65.361 46.017C63.2089 45.2201 61.1388 44.8242 59.1508 44.8242C56.2512 44.8242 53.9853 45.5759 52.3554 47.0812C50.7253 48.5865 49.9104 50.6718 49.9104 53.339C49.9104 56.1415 50.6959 58.2648 52.2648 59.714C53.8338 61.1615 56.1418 61.8842 59.1826 61.8842C60.8357 61.8842 62.4487 61.7179 64.0238 61.389V54.9995H58.6941V52.842Z" fill="#281D16"/>
<path d="M77.8736 44.1904C78.6671 44.1904 79.3784 44.2606 80.0076 44.403L79.6329 47.135C78.8943 46.9588 78.244 46.8706 77.678 46.8706C76.2343 46.8706 74.999 47.51 73.9741 48.7846C72.947 50.0661 72.4334 51.657 72.4334 53.5596V64H69.7314V44.543H71.96L72.2715 48.1473H72.4C73.065 46.8818 73.8625 45.9058 74.7948 45.2186C75.7293 44.5318 76.7561 44.1904 77.8736 44.1904Z" fill="#281D16"/>
<path d="M87.2008 61.6069C88.7546 61.6069 89.9742 61.1111 90.8616 60.1212C91.7471 59.1339 92.19 57.7482 92.19 55.9644V54.2343L89.6965 54.3567C87.7136 54.4366 86.2803 54.7991 85.4042 55.4329C84.5283 56.0667 84.0895 57.0522 84.0895 58.3931C84.0895 59.4408 84.3634 60.2391 84.909 60.7862C85.4567 61.3333 86.2181 61.6069 87.2008 61.6069ZM92.8369 63.6509L92.3417 60.9242H92.2211C91.3998 62.1251 90.5801 62.939 89.7626 63.3638C88.9486 63.7865 87.9272 64 86.7056 64C85.0703 64 83.7923 63.513 82.8661 62.5322C81.9376 61.5559 81.4755 60.1636 81.4755 58.3575C81.4755 54.4899 84.1361 52.4662 89.4556 52.2793L92.2522 52.1747V50.9849C92.2522 49.4815 91.9726 48.374 91.4171 47.6577C90.8616 46.9393 89.9723 46.5835 88.7485 46.5835C87.3775 46.5835 85.8236 47.0705 84.0895 48.0492L83.3243 45.8318C84.1361 45.3203 85.0238 44.9156 85.9907 44.6241C86.958 44.3328 87.9272 44.1904 88.9002 44.1904C90.8636 44.1904 92.3202 44.6954 93.266 45.7095C94.2118 46.7235 94.6877 48.3472 94.6877 50.5846V63.6509H92.8369Z" fill="#281D16"/>
<path d="M107.106 64V51.415C107.106 49.8288 106.83 48.6446 106.275 47.8626C105.721 47.0832 104.855 46.6943 103.674 46.6943C102.111 46.6943 100.968 47.2435 100.241 48.3439C99.5142 49.4447 99.15 51.2614 99.15 53.7924V64H96.8899V44.5454H98.7294L99.0972 47.2052H99.2062C99.6676 46.2492 100.319 45.5058 101.153 44.979C101.989 44.4525 102.92 44.1904 103.947 44.1904C105.746 44.1904 107.097 44.7555 108.006 45.8854C108.912 47.0153 109.368 48.8209 109.368 51.3089V64H107.106Z" fill="#281D16"/>
<path d="M122.475 61.8495C124.201 61.8495 125.452 61.3729 126.227 60.4177C127.004 59.4648 127.392 57.9246 127.392 55.8017V55.2579C127.392 52.8574 126.998 51.142 126.211 50.1159C125.426 49.0879 124.169 48.578 122.443 48.578C120.96 48.578 119.827 49.1627 119.041 50.3307C118.252 51.5023 117.859 53.1548 117.859 55.2895C117.859 57.4559 118.252 59.0906 119.033 60.1934C119.813 61.2981 120.96 61.8495 122.475 61.8495ZM127.528 61.4164H127.392C126.225 63.1374 124.478 64.0001 122.154 64.0001C119.972 64.0001 118.274 63.2399 117.06 61.7237C115.848 60.2092 115.24 58.0547 115.24 55.2579C115.24 52.4634 115.85 50.2931 117.068 48.7473C118.286 47.1992 119.98 46.4272 122.154 46.4272C124.417 46.4272 126.154 47.2625 127.36 48.9305H127.559L127.453 47.7094L127.392 46.5197V39.6191H129.92V63.6911H127.864L127.528 61.4164Z" fill="#281D16"/>
<path d="M140.772 46.6147C139.587 46.6147 138.643 47.1144 137.939 48.1134C137.234 49.1125 136.82 50.4953 136.693 52.2649H144.406C144.406 50.4399 144.091 49.0414 143.465 48.0689C142.836 47.1008 141.939 46.6147 140.772 46.6147ZM141.379 64C139.198 64 137.476 63.1386 136.217 61.4182C134.954 59.6976 134.324 57.3086 134.324 54.2497C134.324 51.1724 134.911 48.7216 136.081 46.9101C137.253 45.0963 138.825 44.1904 140.799 44.1904C142.646 44.1904 144.11 44.9763 145.186 46.5525C146.262 48.1288 146.803 50.2046 146.803 52.7866V54.6181H136.639C136.684 56.8603 137.121 58.5653 137.952 59.7265C138.784 60.8897 139.951 61.4692 141.459 61.4692C143.047 61.4692 144.617 61.0406 146.171 60.1816V62.7613C145.381 63.2052 144.632 63.5206 143.928 63.7114C143.223 63.9024 142.373 64 141.379 64Z" fill="#281D16"/>
<path d="M162.867 61.8495C164.247 61.8495 165.248 61.3729 165.869 60.4177C166.491 59.4648 166.802 57.9246 166.802 55.8017V55.2579C166.802 52.8574 166.486 51.142 165.857 50.1159C165.228 49.0879 164.223 48.578 162.843 48.578C161.656 48.578 160.749 49.1627 160.12 50.3307C159.488 51.5023 159.175 53.1548 159.175 55.2895C159.175 57.4559 159.489 59.0906 160.115 60.1934C160.736 61.2981 161.656 61.8495 162.867 61.8495ZM166.909 61.4164H166.802C165.867 63.1374 164.47 64.0001 162.61 64.0001C160.866 64.0001 159.506 63.2399 158.534 61.7237C157.565 60.2092 157.078 58.0547 157.078 55.2579C157.078 52.4634 157.568 50.2931 158.542 48.7473C159.515 47.1992 160.871 46.4272 162.61 46.4272C164.421 46.4272 165.811 47.2625 166.775 48.9305H166.934L166.851 47.7094L166.802 46.5197V39.6191H168.823V63.6911H167.179L166.909 61.4164Z" fill="#281D16"/>
<path d="M176.215 54.0763C176.215 56.5183 176.584 58.3766 177.319 59.6575C178.054 60.9363 179.136 61.5756 180.559 61.5756C181.985 61.5756 183.066 60.9386 183.807 59.6666C184.547 58.3923 184.916 56.5295 184.916 54.0763C184.916 51.6476 184.547 49.8005 183.807 48.5397C183.066 47.2762 181.976 46.6481 180.534 46.6481C179.108 46.6481 178.032 47.2697 177.308 48.5129C176.581 49.7583 176.215 51.6143 176.215 54.0763ZM187.173 54.0763C187.173 57.191 186.581 59.6265 185.403 61.3737C184.22 63.1253 182.59 64 180.507 64C179.221 64 178.081 63.5982 177.082 62.7966C176.086 61.9931 175.315 60.8431 174.773 59.3424C174.231 57.8437 173.961 56.0876 173.961 54.0763C173.961 50.9616 174.547 48.535 175.717 46.7969C176.89 45.0586 178.516 44.1904 180.6 44.1904C182.609 44.1904 184.211 45.0786 185.395 46.8568C186.579 48.6349 187.173 51.0415 187.173 54.0763Z" fill="#281D16"/>
<path d="M214.331 64.0001H211.836L201.565 46.0943H201.463C201.601 48.1951 201.67 50.1215 201.67 51.8751V64.0001H199.651V42.6667H202.118L212.364 60.4984H212.468C212.45 60.2348 212.412 59.3931 212.351 57.9665C212.29 56.5398 212.269 55.5217 212.287 54.9087V42.6667H214.331V64.0001Z" fill="#281D16"/>
<path d="M223.803 54.0763C223.803 56.5183 224.149 58.3766 224.843 59.6575C225.537 60.9363 226.559 61.5756 227.903 61.5756C229.249 61.5756 230.274 60.9386 230.973 59.6666C231.67 58.3923 232.018 56.5295 232.018 54.0763C232.018 51.6476 231.67 49.8005 230.973 48.5397C230.274 47.2762 229.242 46.6481 227.879 46.6481C226.533 46.6481 225.516 47.2697 224.833 48.5129C224.146 49.7583 223.803 51.6143 223.803 54.0763ZM234.15 54.0763C234.15 57.191 233.591 59.6265 232.478 61.3737C231.36 63.1253 229.821 64 227.856 64C226.639 64 225.563 63.5982 224.619 62.7966C223.678 61.9931 222.953 60.8431 222.438 59.3424C221.926 57.8437 221.672 56.0876 221.672 54.0763C221.672 50.9616 222.225 48.535 223.33 46.7969C224.438 45.0586 225.974 44.1904 227.942 44.1904C229.842 44.1904 231.353 45.0786 232.47 46.8568C233.588 48.6349 234.15 51.0415 234.15 54.0763Z" fill="#281D16"/>
<path d="M247.431 44.1904C248.223 44.1904 248.935 44.2606 249.564 44.403L249.19 47.135C248.451 46.9588 247.801 46.8706 247.236 46.8706C245.791 46.8706 244.555 47.51 243.53 48.7846C242.505 50.0661 241.991 51.657 241.991 53.5596V64H239.288V44.543H241.517L241.828 48.1473H241.956C242.622 46.8818 243.42 45.9058 244.351 45.2186C245.288 44.5318 246.313 44.1904 247.431 44.1904Z" fill="#281D16"/>
<path d="M255.207 61.8673C255.538 61.8673 255.859 61.8334 256.168 61.7642C256.476 61.6987 256.723 61.6292 256.904 61.5559V63.5342C256.698 63.669 256.399 63.7801 256.004 63.8673C255.607 63.9565 255.253 64.0001 254.934 64.0001C252.538 64.0001 251.338 62.2617 251.338 58.7829V48.6315H249.564V47.3845L251.338 46.3123L252.13 42.6667H253.216V46.6234H256.812V48.6315H253.216V58.6756C253.216 59.7026 253.392 60.4915 253.749 61.0406C254.101 61.5918 254.587 61.8673 255.207 61.8673Z" fill="#281D16"/>
<path d="M266.692 46.6147C265.299 46.6147 264.188 47.1144 263.359 48.1134C262.531 49.1125 262.042 50.4953 261.894 52.2649H270.968C270.968 50.4399 270.599 49.0414 269.86 48.0689C269.121 47.1008 268.066 46.6147 266.692 46.6147ZM267.406 64C264.84 64 262.814 63.1386 261.334 61.4182C259.848 59.6976 259.106 57.3086 259.106 54.2497C259.106 51.1724 259.797 48.7216 261.173 46.9101C262.554 45.0963 264.402 44.1904 266.726 44.1904C268.897 44.1904 270.619 44.9763 271.886 46.5525C273.152 48.1288 273.787 50.2046 273.787 52.7866V54.6181H261.83C261.884 56.8603 262.399 58.5653 263.375 59.7265C264.351 60.8897 265.727 61.4692 267.498 61.4692C269.368 61.4692 271.216 61.0406 273.043 60.1816V62.7613C272.112 63.2052 271.233 63.5206 270.405 63.7114C269.577 63.9024 268.576 64 267.406 64Z" fill="#281D16"/>
</svg>
