<svg width="129" height="146" viewBox="0 0 129 146" fill="none" xmlns="http://www.w3.org/2000/svg">
<path d="M56.7754 0.163574C104.563 25.1971 123.465 44.8525 96.8991 86.1113C94.2893 90.1644 88.4105 90.4958 83.5898 90.4956C80.3769 90.4957 77.2675 91.6964 74.9521 93.8755C72.6315 96.0596 71.2969 99.0552 71.2969 102.213C71.2969 104.194 71.8234 106.11 72.7879 107.802C73.0875 108.328 72.7586 109.076 72.2783 109.444L72.083 109.61L64.249 116.984C63.2436 117.93 63.1953 119.513 64.1416 120.518C65.0288 121.46 66.4749 121.561 67.4805 120.791L67.6758 120.625L75.5107 113.251C76.101 112.696 77.1315 112.212 77.8559 112.577C79.6144 113.461 81.5817 113.93 83.5898 113.93L84.1914 113.917C87.1889 113.777 90.0579 112.594 92.2285 110.551C94.549 108.367 95.8837 105.371 95.8838 102.213C95.8838 98.6936 97.8439 93.3463 101.105 92.0217C107.34 89.4891 114.885 84.864 123.741 78.1456C124.182 77.8112 124.823 77.9721 125.047 78.478C127.223 83.4635 128.999 88.7877 128.999 94.3218C128.999 107.881 122.058 120.885 109.702 130.472C97.3463 140.06 80.5881 145.446 63.1143 145.446C49.9123 145.445 37.0149 142.367 26.0947 136.61C15.1745 130.853 9.50031 124.102 4.63574 114.579C-0.228815 105.055 -1.29407 94.6174 1.57812 84.6187C4.45037 74.6199 11.0222 66.5923 19.4326 56.6675C29.7247 47.0729 57.1653 33.7265 54.6161 1.64103C54.524 0.480962 55.743 -0.373441 56.7754 0.163574ZM91.4248 49.9399C88.2118 49.94 85.1015 51.1397 82.7861 53.3188C80.4656 55.5029 79.1318 58.4995 79.1318 61.6577L79.1357 61.9526C79.1852 63.8281 79.7063 65.6375 80.6227 67.2454C80.9223 67.7711 80.5936 68.5202 80.1133 68.8882L79.918 69.0542L48.5791 98.5493C47.989 99.1048 46.9582 99.5871 46.2341 99.2232C44.6513 98.4278 42.8992 97.9682 41.1006 97.8843L40.499 97.8696C37.2863 97.8697 34.1766 99.0697 31.8613 101.249C29.5407 103.433 28.2061 106.429 28.2061 109.587C28.2062 112.745 29.5408 115.741 31.8613 117.925C34.1766 120.104 37.2862 121.304 40.499 121.304L41.1006 121.291C44.098 121.151 46.9671 119.968 49.1377 117.925C51.3857 115.809 52.7087 112.931 52.7891 109.882L52.793 109.587C52.793 107.693 52.3109 105.859 51.4251 104.222C51.0831 103.59 51.4825 102.683 52.0059 102.19L83.3447 72.6948C83.9348 72.1394 84.9656 71.6571 85.6897 72.021C87.4485 72.9051 89.4164 73.3745 91.4248 73.3745C94.6378 73.3744 97.7481 72.1747 100.063 69.9956C102.384 67.8117 103.719 64.8156 103.719 61.6577C103.719 58.4996 102.384 55.5029 100.063 53.3188C97.7481 51.1397 94.6378 49.94 91.4248 49.9399ZM40.8691 102.878C42.7126 102.965 44.438 103.692 45.7109 104.89C46.9788 106.084 47.6991 107.646 47.7842 109.263L47.793 109.587C47.7929 111.318 47.0634 113.012 45.7109 114.285C44.4381 115.483 42.7125 116.209 40.8691 116.295L40.499 116.304C38.5179 116.304 36.6457 115.562 35.2881 114.285C33.9356 113.012 33.2062 111.318 33.2061 109.587C33.2061 107.856 33.9355 106.163 35.2881 104.89C36.6457 103.612 38.5177 102.87 40.499 102.87L40.8691 102.878ZM83.5898 95.4956C85.5713 95.4957 87.4441 96.2383 88.8018 97.5161C90.1542 98.7891 90.8838 100.483 90.8838 102.213C90.8837 103.944 90.1542 105.638 88.8018 106.911C87.5289 108.109 85.8033 108.836 83.96 108.922L83.5898 108.93C81.6087 108.93 79.7365 108.188 78.3789 106.911C77.0263 105.638 76.2969 103.944 76.2969 102.213C76.2969 100.482 77.0263 98.7892 78.3789 97.5161C79.7365 96.2385 81.6086 95.4957 83.5898 95.4956ZM67.7822 50.7261C66.836 49.7212 65.2543 49.6737 64.249 50.6196L56.4141 57.9937C55.8241 58.5491 54.7931 59.0313 54.0692 58.6674C52.4863 57.8716 50.7342 57.4116 48.9355 57.3276L48.334 57.314C45.121 57.314 42.0107 58.5137 39.6953 60.6929C37.3749 62.8769 36.0411 65.8727 36.041 69.0308L36.0449 69.3267C36.1254 72.3757 37.4473 75.2538 39.6953 77.3696C42.0107 79.5487 45.121 80.7485 48.334 80.7485C51.5469 80.7484 54.6573 79.5487 56.9727 77.3696C59.2931 75.1856 60.6279 72.1889 60.6279 69.0308C60.6279 67.1366 60.1458 65.3019 59.2599 63.6652C58.9179 63.0333 59.3176 62.1267 59.8408 61.6343L67.6758 54.2603C68.6808 53.314 68.7281 51.7314 67.7822 50.7261ZM48.7041 62.3228C50.5474 62.409 52.2731 63.1356 53.5459 64.3335C54.8983 65.6065 55.6278 67.3 55.6279 69.0308C55.6279 70.7615 54.8983 72.455 53.5459 73.728C52.1882 75.0058 50.3154 75.7484 48.334 75.7485C46.3527 75.7485 44.4807 75.0056 43.123 73.728C41.855 72.5345 41.1339 70.9719 41.0488 69.355L41.041 69.0308C41.0411 67.2999 41.7705 65.6065 43.123 64.3335C44.4807 63.056 46.3528 62.314 48.334 62.314L48.7041 62.3228ZM91.4248 54.9399C93.4062 54.94 95.2791 55.6826 96.6367 56.9604C97.989 58.2334 98.7188 59.927 98.7188 61.6577C98.7186 63.3883 97.9889 65.0811 96.6367 66.354C95.2791 67.6318 93.4062 68.3744 91.4248 68.3745C89.4435 68.3745 87.5716 67.6317 86.2139 66.354C84.9457 65.1605 84.2247 63.5979 84.1396 61.981L84.1318 61.6577C84.1318 59.9268 84.8612 58.2335 86.2139 56.9604C87.5716 55.6827 89.4434 54.94 91.4248 54.9399Z" fill="url(#paint0_linear_102_1628)"/>
<defs>
<linearGradient id="paint0_linear_102_1628" x1="64.4999" y1="-1.1083" x2="64.4999" y2="145.447" gradientUnits="userSpaceOnUse">
<stop/>
<stop offset="1" stop-color="#793A00"/>
</linearGradient>
</defs>
</svg>
