<svg width="44" height="64" viewBox="0 0 44 64" fill="none" xmlns="http://www.w3.org/2000/svg">
<g clip-path="url(#clip0_102_1581)">
<path d="M12.1318 46.7269C13.956 49.0518 15.6164 51.5007 17.1009 54.056C18.3683 56.4591 18.8967 58.0887 19.8229 60.9842C20.3909 62.5841 20.9043 63.0615 22.0081 63.0615C23.2109 63.0615 23.7566 62.2492 24.1782 60.993C25.0537 58.2585 25.7407 56.1716 26.8246 54.1996C28.9514 50.3926 31.5941 47.0096 34.1908 43.7582C34.8938 42.838 39.4388 37.4771 41.485 33.2471C41.485 33.2471 43.9999 28.6004 43.9999 22.1109C43.9999 16.0406 41.5197 11.8306 41.5197 11.8306L34.3792 13.7428L30.0428 25.1641L28.9699 26.739L28.7554 27.0243L28.4701 27.3815L27.9693 27.9519L27.2536 28.6674L23.3921 31.8134L13.7378 37.3877L12.1318 46.7269Z" fill="black"/>
<path d="M2.16772 32.4659C4.52396 37.8478 9.06765 42.5788 12.1418 46.7306L28.4701 27.3888C28.4701 27.3888 26.1697 30.3973 21.9969 30.3973C17.3489 30.3973 13.594 26.6857 13.594 22.0055C13.594 18.7961 15.5248 16.5913 15.5248 16.5913L4.44077 19.5613L2.16772 32.4659Z" fill="black"/>
<path d="M28.6525 0.994629C34.0755 2.74311 38.7171 6.41385 41.5247 11.8267L28.4751 27.3776C28.4751 27.3776 30.4059 25.1329 30.4059 21.9434C30.4059 17.1543 26.3732 13.5766 22.0167 13.5766C17.897 13.5766 15.531 16.5801 15.531 16.5801V6.78321L28.6525 0.994629Z" fill="black"/>
<path d="M5.15894 7.86586C8.39792 3.99059 14.0973 0 21.9547 0C25.7669 0 28.639 1.00083 28.639 1.00083L15.5187 16.5887H6.22284L5.15894 7.86586Z" fill="black"/>
<path d="M2.16769 32.4659C2.16769 32.4659 0 28.221 0 22.0713C0 16.259 2.25947 11.1783 5.15883 7.86597L15.526 16.5902L2.16769 32.4659Z" fill="black"/>
</g>
<defs>
<clipPath id="clip0_102_1581">
<rect width="44" height="63.0781" fill="white"/>
</clipPath>
</defs>
</svg>
