<svg width="25" height="26" viewBox="0 0 25 26" fill="none" xmlns="http://www.w3.org/2000/svg">
<path d="M9.2456 18.7045C6.66144 18.7045 4.47462 17.8093 2.68515 16.0188C0.895672 14.2284 0.000460788 12.0416 -0.000487529 9.45838C-0.00143585 6.87517 0.893775 4.68835 2.68515 2.89793C4.47652 1.10751 6.66333 0.212296 9.2456 0.212296C11.8279 0.212296 14.0152 1.10751 15.8075 2.89793C17.5998 4.68835 18.4945 6.87517 18.4917 9.45838C18.4917 10.5015 18.3257 11.4854 17.9938 12.41C17.6619 13.3346 17.2115 14.1526 16.6425 14.8638L24.6083 22.8296C24.8691 23.0904 24.9995 23.4223 24.9995 23.8254C24.9995 24.2284 24.8691 24.5603 24.6083 24.8211C24.3475 25.0819 24.0156 25.2123 23.6126 25.2123C23.2096 25.2123 22.8777 25.0819 22.6169 24.8211L14.651 16.8553C13.9398 17.4242 13.1218 17.8747 12.1972 18.2066C11.2726 18.5385 10.2887 18.7045 9.2456 18.7045ZM9.2456 15.8595C11.0237 15.8595 12.5353 15.2374 13.7805 13.9932C15.0256 12.749 15.6477 11.2374 15.6467 9.45838C15.6458 7.67934 15.0237 6.1682 13.7805 4.92496C12.5372 3.68171 11.0256 3.05914 9.2456 3.05725C7.46561 3.05535 5.95447 3.67792 4.71217 4.92496C3.46988 6.17199 2.84731 7.68313 2.84446 9.45838C2.84162 11.2336 3.46419 12.7452 4.71217 13.9932C5.96016 15.2412 7.4713 15.8633 9.2456 15.8595Z" fill="#FF8618"/>
</svg>
