<svg width="100" height="145" viewBox="0 0 100 145" fill="none" xmlns="http://www.w3.org/2000/svg">
<path d="M100 105.254C100 107.013 98.7668 108.475 97.2882 108.475H75.5932C74.1145 108.475 72.8813 107.013 72.8813 105.254V79.4916C72.8813 77.7353 74.1145 76.2712 75.5932 76.2712H97.2882C98.7668 76.2712 100 77.7353 100 79.4916V105.254Z" fill="black"/>
<path d="M30.5085 105.254C30.5085 107.013 29.2756 108.475 27.7969 108.475H6.10329C4.62273 108.475 3.38983 107.013 3.38983 105.254V79.4916C3.38983 77.7353 4.62273 76.2712 6.10329 76.2712H27.7969C29.2756 76.2712 30.5085 77.7353 30.5085 79.4916V105.254Z" fill="black"/>
<path d="M64.4068 30.8478C64.4068 32.5093 63.0952 33.8984 61.5257 33.8984H38.4743C36.9051 33.8984 35.5932 32.5093 35.5932 30.8478V6.44032C35.5932 4.77681 36.9051 3.38989 38.4743 3.38989H61.5257C63.0952 3.38989 64.4068 4.77681 64.4068 6.44032V30.8478Z" fill="black"/>
<path d="M100 30.8478C100 32.5093 98.7668 33.8984 97.2882 33.8984H75.5932C74.1145 33.8984 72.8813 32.5093 72.8813 30.8478V6.44032C72.8813 4.77681 74.1145 3.38989 75.5932 3.38989H97.2882C98.7668 3.38989 100 4.77681 100 6.44032V30.8478Z" fill="black"/>
<path d="M30.5085 66.4411C30.5085 68.1026 29.2756 69.4916 27.7969 69.4916H6.10329C4.62273 69.4916 3.38983 68.1026 3.38983 66.4411V42.0337C3.38983 40.3682 4.62273 38.9832 6.10329 38.9832H27.7969C29.2756 38.9832 30.5085 40.3682 30.5085 42.0337V66.4411Z" fill="black"/>
<path d="M64.4068 66.4411C64.4068 68.1026 63.0952 69.4916 61.5257 69.4916H38.4743C36.9051 69.4916 35.5932 68.1026 35.5932 66.4411V42.0337C35.5932 40.3682 36.9051 38.9832 38.4743 38.9832H61.5257C63.0952 38.9832 64.4068 40.3682 64.4068 42.0337V66.4411Z" fill="black"/>
<path d="M64.4068 105.254C64.4068 107.013 63.0952 108.475 61.5257 108.475H38.4743C36.9051 108.475 35.5932 107.013 35.5932 105.254V79.4916C35.5932 77.7353 36.9051 76.2712 38.4743 76.2712H61.5257C63.0952 76.2712 64.4068 77.7353 64.4068 79.4916V105.254Z" fill="black"/>
<path d="M30.5085 141.017C30.5085 142.683 29.2756 144.068 27.7969 144.068H6.10329C4.62273 144.068 3.38983 142.683 3.38983 141.017V116.61C3.38983 114.946 4.62273 113.559 6.10329 113.559H27.7969C29.2756 113.559 30.5085 114.946 30.5085 116.61V141.017Z" fill="black"/>
<path d="M64.4068 141.017C64.4068 142.683 63.0952 144.068 61.5257 144.068H38.4743C36.9051 144.068 35.5932 142.683 35.5932 141.017V116.61C35.5932 114.946 36.9051 113.559 38.4743 113.559H61.5257C63.0952 113.559 64.4068 114.946 64.4068 116.61V141.017Z" fill="black"/>
<path d="M33.8983 17.7976C33.8983 27.5883 26.271 35.5932 16.9492 35.5932C7.62734 35.5932 0 27.5883 0 17.7976C0 8.00704 7.62734 0 16.9492 0C26.271 0 33.8983 8.00704 33.8983 17.7976Z" fill="black"/>
</svg>
