<svg width="75" height="57" viewBox="0 0 75 57" fill="none" xmlns="http://www.w3.org/2000/svg">
<g clip-path="url(#clip0_102_1575)">
<path d="M57.9545 56.2647V27.2872L66.9413 19.0656L75 14.5032V51.1509C75 53.9804 72.7075 56.2647 69.8862 56.2647H57.9545Z" fill="black"/>
<path d="M17.0454 56.2646H5.11367C2.28389 56.2646 -9.91821e-05 53.9719 -9.91821e-05 51.1509V14.5034L9.12764 19.7291L17.0454 27.2871V56.2646Z" fill="black"/>
<path d="M57.9544 27.2872L59.1772 15.9648L57.9544 5.12817L37.4999 20.4692L17.0454 5.12817L15.6775 15.3797L17.0454 27.2872L37.4999 42.6282L57.9544 27.2872Z" fill="black"/>
<path d="M17.0454 5.12803V27.287L-9.91821e-05 14.503V7.68477C-9.91821e-05 1.36104 7.21865 -2.24394 12.2724 1.54854L17.0454 5.12803Z" fill="black"/>
<path d="M75 14.5032L67.1604 20.3831L57.9545 27.2872V5.12817L62.7275 1.54868C67.79 -2.2441 75 1.36118 75 7.68461V14.5032Z" fill="black"/>
</g>
<defs>
<clipPath id="clip0_102_1575">
<rect width="75" height="56.543" fill="white" transform="matrix(-1 0 0 1 75 0)"/>
</clipPath>
</defs>
</svg>
