<svg width="77" height="85" viewBox="0 0 77 85" fill="none" xmlns="http://www.w3.org/2000/svg">
<path d="M33.7144 0.0944901C61.9933 14.5385 73.2365 25.8881 57.7023 49.6071C56.1024 52.05 52.5574 52.243 49.6372 52.2429C47.7126 52.243 45.8412 52.9432 44.4419 54.2273C43.0383 55.5156 42.2203 57.2942 42.2202 59.1804C42.2202 60.2815 42.5001 61.3454 43.0118 62.2967C43.1922 62.6321 43.0194 63.0802 42.7388 63.3377L38.0864 67.6072C37.4352 68.205 37.392 69.2185 37.9897 69.8699C38.5876 70.521 39.6001 70.5641 40.2515 69.9666L44.9038 65.697C45.2517 65.3777 45.8089 65.1378 46.234 65.3434C47.2824 65.8504 48.4492 66.1189 49.6372 66.1189C51.5616 66.1189 53.4323 65.4183 54.8315 64.1345C56.2355 62.8462 57.0541 61.0669 57.0542 59.1804C57.0541 57.1071 58.1684 54.0241 60.0945 53.2567C62.2626 52.3929 64.6964 51.1155 67.3958 49.4242C70.8968 47.2307 75.8885 48.3756 76.4522 52.4684C76.5496 53.1762 76.603 53.8911 76.603 54.6121C76.6029 62.4625 72.4812 69.9916 65.144 75.5427C57.8068 81.0938 47.8554 84.2126 37.479 84.2127C29.6394 84.2122 21.9803 82.4295 15.4956 79.0964C9.01096 75.7633 5.64114 71.8545 2.75244 66.3406C-0.136237 60.8267 -0.768489 54.7831 0.937012 48.9939C2.64263 43.2046 6.54419 38.5558 11.5386 32.8093C17.6469 27.2572 33.9283 19.5355 32.4352 0.980401C32.3798 0.292357 33.0989 -0.21801 33.7144 0.0944901ZM54.2896 28.7615C52.3649 28.7616 50.4945 29.4618 49.0952 30.7459C47.6914 32.0342 46.8726 33.8125 46.8726 35.699C46.8726 36.8556 47.1817 37.9708 47.7437 38.9579C47.8928 39.2198 47.7596 39.5714 47.5181 39.7517L47.3911 39.8562L28.7817 56.9334C28.4339 57.2527 27.876 57.4919 27.4508 57.2865C26.4025 56.7801 25.236 56.5125 24.0483 56.5125C22.1238 56.5126 20.2532 57.2129 18.854 58.4968C17.4503 59.7851 16.6324 61.5636 16.6323 63.45C16.6324 65.3365 17.4501 67.1157 18.854 68.4041C20.2532 69.6879 22.1239 70.3883 24.0483 70.3884C25.973 70.3884 27.8443 69.6881 29.2437 68.4041C30.6476 67.1157 31.4653 65.3365 31.4653 63.45C31.4653 62.2932 31.1561 61.1782 30.5941 60.1912C30.4447 59.9288 30.5789 59.5779 30.8208 59.3972L30.9468 59.2927L49.5562 42.2156C49.9041 41.8962 50.4612 41.6563 50.8864 41.8618C51.9348 42.3685 53.1016 42.6364 54.2896 42.6365C56.2141 42.6365 58.0846 41.936 59.4839 40.6521C60.8878 39.3638 61.7065 37.5855 61.7065 35.699C61.7065 33.8124 60.8878 32.0342 59.4839 30.7459C58.0845 29.4618 56.2142 28.7615 54.2896 28.7615ZM24.0483 59.7146C25.2083 59.7146 26.2967 60.1387 27.0786 60.8562C27.8557 61.5694 28.2631 62.5059 28.2632 63.45C28.2631 64.3941 27.8559 65.3314 27.0786 66.0447C26.2967 66.7621 25.2083 67.1863 24.0483 67.1863C22.8886 67.1862 21.8008 66.762 21.019 66.0447C20.2418 65.3314 19.8335 64.3941 19.8335 63.45C19.8336 62.5059 20.242 61.5694 21.019 60.8562C21.8008 60.1388 22.8885 59.7147 24.0483 59.7146ZM49.6372 55.4451C50.7971 55.4451 51.8846 55.8693 52.6665 56.5867C53.4437 57.2999 53.8519 58.2363 53.8521 59.1804C53.852 60.1246 53.4438 61.0619 52.6665 61.7752C51.8846 62.4924 50.7969 62.9167 49.6372 62.9168C48.4773 62.9167 47.3888 62.4926 46.6069 61.7752C45.8298 61.0619 45.4224 60.1245 45.4224 59.1804C45.4225 58.2365 45.83 57.2998 46.6069 56.5867C47.3888 55.8692 48.4773 55.4451 49.6372 55.4451ZM40.3491 29.28C39.7886 28.6692 38.8627 28.5923 38.2124 29.0779L38.0864 29.1824L33.4341 33.4519C33.0865 33.771 32.5288 34.0098 32.1039 33.8045C31.0554 33.2979 29.8885 33.03 28.7007 33.03C26.7761 33.0302 24.9056 33.7314 23.5063 35.0154C22.1026 36.3037 21.2847 38.0821 21.2847 39.9685C21.2848 41.8549 22.1025 43.6334 23.5063 44.9216C24.9056 46.2056 26.7762 46.9059 28.7007 46.906C30.6253 46.906 32.4967 46.2057 33.896 44.9216C35.2998 43.6334 36.1176 41.8549 36.1177 39.9685C36.1177 38.8114 35.8086 37.6958 35.2462 36.7084C35.0969 36.4462 35.2314 36.0962 35.4731 35.9158L35.5991 35.8113L40.2515 31.5418C40.9028 30.944 40.9465 29.9315 40.3491 29.28ZM28.7007 36.2322C29.8606 36.2322 30.9491 36.6563 31.731 37.3738C32.5083 38.0871 32.9155 39.0243 32.9155 39.9685C32.9154 40.9125 32.508 41.8491 31.731 42.5623C30.9491 43.2797 29.8606 43.7039 28.7007 43.7039C27.5409 43.7037 26.4532 43.2797 25.6714 42.5623C24.8942 41.849 24.4869 40.9126 24.4868 39.9685C24.4868 39.0244 24.8942 38.0871 25.6714 37.3738C26.4531 36.6565 27.541 36.2323 28.7007 36.2322ZM54.2896 31.9627C55.4496 31.9627 56.5379 32.3877 57.3198 33.1052C58.0968 33.8185 58.5044 34.7549 58.5044 35.699C58.5043 36.643 58.0968 37.5795 57.3198 38.2927C56.5379 39.0101 55.4495 39.4343 54.2896 39.4343C53.1297 39.4343 52.0421 39.0101 51.2603 38.2927C50.4831 37.5795 50.0748 36.6431 50.0747 35.699C50.0747 34.7548 50.4831 33.8185 51.2603 33.1052C52.0421 32.3878 53.1296 31.9627 54.2896 31.9627Z" fill="url(#paint0_linear_81_433)"/>
<defs>
<linearGradient id="paint0_linear_81_433" x1="38.3017" y1="-0.640668" x2="38.3017" y2="84.2123" gradientUnits="userSpaceOnUse">
<stop stop-color="#FF9B40"/>
<stop offset="1" stop-color="#FF7A00"/>
</linearGradient>
</defs>
</svg>
