<svg width="65" height="63" viewBox="0 0 65 63" fill="none" xmlns="http://www.w3.org/2000/svg">
<path d="M32.5 0C28.232 0 24.0059 0.835 20.0628 2.45732C16.1197 4.07965 12.5369 6.45753 9.51903 9.45519C3.4241 15.5093 0 23.7203 0 32.2821C0 46.5507 9.3275 58.6565 22.23 62.95C23.855 63.2083 24.375 62.2075 24.375 61.3359V55.8802C15.3725 57.8172 13.455 51.5544 13.455 51.5544C11.96 47.8097 9.8475 46.809 9.8475 46.809C6.89 44.8075 10.075 44.872 10.075 44.872C13.325 45.098 15.0475 48.1971 15.0475 48.1971C17.875 53.104 22.6525 51.6513 24.505 50.8765C24.7975 48.7782 25.6425 47.3578 26.5525 46.5507C19.3375 45.7437 11.765 42.9674 11.765 30.6679C11.765 27.0846 13 24.2115 15.1125 21.9195C14.7875 21.1125 13.65 17.7551 15.4375 13.3971C15.4375 13.3971 18.1675 12.5254 24.375 16.6898C26.9425 15.9796 29.7375 15.6245 32.5 15.6245C35.2625 15.6245 38.0575 15.9796 40.625 16.6898C46.8325 12.5254 49.5625 13.3971 49.5625 13.3971C51.35 17.7551 50.2125 21.1125 49.8875 21.9195C52 24.2115 53.235 27.0846 53.235 30.6679C53.235 42.9997 45.63 45.7114 38.3825 46.5184C39.5525 47.5192 40.625 49.4884 40.625 52.4906V61.3359C40.625 62.2075 41.145 63.2405 42.8025 62.95C55.705 58.6242 65 46.5507 65 32.2821C65 28.0427 64.1594 23.8449 62.5261 19.9282C60.8928 16.0116 58.4989 12.4529 55.481 9.45519C52.4631 6.45753 48.8803 4.07965 44.9372 2.45732C40.9941 0.835 36.768 0 32.5 0Z" fill="black"/>
</svg>
