<svg width="80" height="80" viewBox="0 0 80 80" fill="none" xmlns="http://www.w3.org/2000/svg">
<path d="M26.0001 6.66675H54.0001C64.6667 6.66675 73.3334 15.3334 73.3334 26.0001V54.0001C73.3334 59.1276 71.2965 64.0451 67.6708 67.6708C64.0451 71.2965 59.1276 73.3334 54.0001 73.3334H26.0001C15.3334 73.3334 6.66675 64.6667 6.66675 54.0001V26.0001C6.66675 20.8726 8.70365 15.9551 12.3294 12.3294C15.9551 8.70365 20.8726 6.66675 26.0001 6.66675ZM25.3334 13.3334C22.1508 13.3334 19.0986 14.5977 16.8481 16.8481C14.5977 19.0986 13.3334 22.1508 13.3334 25.3334V54.6667C13.3334 61.3001 18.7001 66.6667 25.3334 66.6667H54.6667C57.8493 66.6667 60.9016 65.4025 63.152 63.152C65.4025 60.9016 66.6667 57.8493 66.6667 54.6667V25.3334C66.6667 18.7001 61.3001 13.3334 54.6667 13.3334H25.3334ZM57.5001 18.3334C58.6051 18.3334 59.665 18.7724 60.4464 19.5538C61.2278 20.3352 61.6667 21.395 61.6667 22.5001C61.6667 23.6052 61.2278 24.665 60.4464 25.4464C59.665 26.2278 58.6051 26.6667 57.5001 26.6667C56.395 26.6667 55.3352 26.2278 54.5538 25.4464C53.7724 24.665 53.3334 23.6052 53.3334 22.5001C53.3334 21.395 53.7724 20.3352 54.5538 19.5538C55.3352 18.7724 56.395 18.3334 57.5001 18.3334ZM40.0001 23.3334C44.4204 23.3334 48.6596 25.0894 51.7852 28.215C54.9108 31.3406 56.6667 35.5798 56.6667 40.0001C56.6667 44.4204 54.9108 48.6596 51.7852 51.7852C48.6596 54.9108 44.4204 56.6667 40.0001 56.6667C35.5798 56.6667 31.3406 54.9108 28.215 51.7852C25.0894 48.6596 23.3334 44.4204 23.3334 40.0001C23.3334 35.5798 25.0894 31.3406 28.215 28.215C31.3406 25.0894 35.5798 23.3334 40.0001 23.3334ZM40.0001 30.0001C37.3479 30.0001 34.8044 31.0536 32.929 32.929C31.0536 34.8044 30.0001 37.3479 30.0001 40.0001C30.0001 42.6522 31.0536 45.1958 32.929 47.0711C34.8044 48.9465 37.3479 50.0001 40.0001 50.0001C42.6522 50.0001 45.1958 48.9465 47.0711 47.0711C48.9465 45.1958 50.0001 42.6522 50.0001 40.0001C50.0001 37.3479 48.9465 34.8044 47.0711 32.929C45.1958 31.0536 42.6522 30.0001 40.0001 30.0001Z" fill="black"/>
</svg>
